<?xml version="1.0" encoding="UTF-8"?>
<svg xmlns="http://www.w3.org/2000/svg" width="17" height="17" viewBox="0 0 17 17" fill="none">
  <path fill-rule="evenodd" clip-rule="evenodd" d="M6.22911 3.08398H10.7683C12.7399 3.08398 13.9154 4.2594 13.9099 6.23107V10.7702C13.9099 12.7419 12.7345 13.9173 10.7629 13.9173H6.22911C4.25745 13.9173 3.08203 12.7419 3.08203 10.7648V6.23107C3.08203 4.2594 4.25745 3.08398 6.22911 3.08398ZM11.5916 5.90607C11.6404 5.8519 11.6783 5.79232 11.7054 5.72732C11.7324 5.66232 11.7487 5.5919 11.7487 5.52148C11.7487 5.45107 11.7324 5.38065 11.7054 5.31565C11.6783 5.24523 11.6404 5.19107 11.5916 5.1369C11.5826 5.12968 11.5736 5.12185 11.5645 5.11403C11.5465 5.09838 11.5284 5.08273 11.5104 5.0719C11.4779 5.05023 11.4454 5.03398 11.4129 5.02315C11.3804 5.0069 11.3479 4.99607 11.3099 4.99065C11.1366 4.95273 10.947 5.01232 10.8224 5.1369C10.7737 5.19107 10.7358 5.24523 10.7087 5.31565C10.6816 5.38065 10.6654 5.45107 10.6654 5.52148C10.6654 5.5919 10.6816 5.66232 10.7087 5.72732C10.7358 5.79232 10.7737 5.8519 10.8224 5.90607C10.9254 6.00898 11.0608 6.06315 11.207 6.06315C11.2774 6.06315 11.3479 6.0469 11.4129 6.01982C11.4779 5.99273 11.5374 5.95482 11.5916 5.90607ZM8.5 10.1C7.61819 10.1 6.9 9.38181 6.9 8.5C6.9 7.61819 7.61819 6.9 8.5 6.9C9.38181 6.9 10.1 7.61819 10.1 8.5C10.1 9.38181 9.38181 10.1 8.5 10.1ZM6 8.5C6 9.87887 7.12113 11 8.5 11C9.87887 11 11 9.87887 11 8.5C11 7.12113 9.87887 6 8.5 6C7.12113 6 6 7.12113 6 8.5Z" fill="#051235"></path>
</svg>
