<?xml version="1.0" encoding="UTF-8"?>
<svg xmlns="http://www.w3.org/2000/svg" width="17" height="17" viewBox="0 0 17 17" fill="none">
  <path d="M13.7906 6.54589C13.7906 6.66087 13.7906 6.77585 13.7906 6.8744C13.7906 10.2744 11.3089 14.2 6.78534 14.2C5.38743 14.2 4.09948 13.7729 3 13.0502C3.18848 13.0667 3.39267 13.0831 3.58115 13.0831C4.72775 13.0831 5.79581 12.6725 6.64398 11.9826C5.56021 11.9662 4.64921 11.2106 4.35079 10.1923C4.50785 10.2251 4.64921 10.2415 4.82199 10.2415C5.04188 10.2415 5.26178 10.2087 5.46597 10.143C4.33508 9.91304 3.48691 8.87826 3.48691 7.62995C3.48691 7.61353 3.48691 7.61353 3.48691 7.5971C3.81675 7.7942 4.19372 7.90918 4.60209 7.9256C3.94241 7.4657 3.50262 6.67729 3.50262 5.77391C3.50262 5.29758 3.62827 4.85411 3.83246 4.47633C5.04188 6.03671 6.86387 7.05507 8.90576 7.17005C8.85864 6.98937 8.84293 6.77585 8.84293 6.57874C8.84293 5.14976 9.94241 4 11.3089 4C12.0157 4 12.6597 4.31208 13.0995 4.80483C13.6649 4.68986 14.1832 4.47633 14.6702 4.18068C14.4817 4.78841 14.089 5.28116 13.5864 5.60966C14.089 5.54396 14.5602 5.41256 15 5.19903C14.6859 5.72464 14.2775 6.18454 13.7906 6.54589Z" fill="#051235"></path>
</svg>
